<svg xmlns="http://www.w3.org/2000/svg" viewBox="0 0 100 100">
  <defs>
    <linearGradient id="gold" x1="0%" y1="0%" x2="100%" y2="100%">
      <stop offset="0%" style="stop-color:#8b6914"/>
      <stop offset="50%" style="stop-color:#d4a853"/>
      <stop offset="100%" style="stop-color:#f0d090"/>
    </linearGradient>
  </defs>
  <!-- Background -->
  <rect width="100" height="100" rx="15" fill="#0d0d0f"/>
  <!-- Dragon head silhouette -->
  <path fill="url(#gold)" d="M50 15 
    Q70 20 75 35 
    L85 30 
    Q80 45 70 50
    L75 55
    Q65 55 60 60
    Q55 70 50 75
    Q45 70 40 60
    Q35 55 25 55
    L30 50
    Q20 45 15 30
    L25 35
    Q30 20 50 15Z"/>
  <!-- Eye -->
  <circle cx="45" cy="40" r="4" fill="#0d0d0f"/>
  <circle cx="46" cy="39" r="1.5" fill="#f0d090"/>
  <!-- D20 -->
  <polygon fill="none" stroke="url(#gold)" stroke-width="2" 
    points="50,78 35,92 65,92"/>
  <text x="50" y="89" font-family="serif" font-size="10" fill="url(#gold)" 
    text-anchor="middle" font-weight="bold">20</text>
</svg>
